<?xml version="1.0" encoding="UTF-8"?>
<svg id="Layer_2" data-name="Layer 2" xmlns="http://www.w3.org/2000/svg" viewBox="0 0 481.89 106.22">
  <defs>
    <style>
      .cls-1 {
        fill: #000;
      }
    </style>
  </defs>
  <g id="Logos">
    <path id="LOGO_SOFT" class="cls-1" d="M26.89,105.82c-8.31-.68-18.82-2.23-23.74-9.95-7.09-11.87-.99-27.62,6.36-38.38,5.15-7.28,12.78-12.39,21.3-14.92,14.17-4.16,27.98-2.96,42.9-3.23,6.22-.23,10.59-.29,14.14-2.79,2.48-2.14,0-4.97-4.95-5.94-5.99-.9-11.74-.38-17.97-.52-12.28-.03-28.13.05-36.68-.04-2.38-.17-5.24.02-6.79-1.81-2.24-3.52,2.13-13.06,3.6-17.89.82-2.19,1.74-4.44,3.03-6.3C31.91-1.59,40.26.52,47.24.09c5.58,0,11.94,0,17.74,0,17.94.62,41.93-2.41,56.33,5.32,20.6,13.26,5.83,41.87-.11,62.13-2.34,7.1-4.94,14.91-7.23,21.85-2.09,5.75-2.91,10.58-5.82,14.54-2.09,2.27-5.3,2.07-8.33,2.2-18.46-.19-51.84.48-72.75-.29h-.17ZM82.27,65.56c-2.09-2.45-5.78-2.74-10.8-2.9-9.79.26-25.3-1.29-30.15,8.81-1.89,7.69,13.77,6.13,20.23,6.41,3.99-.03,7.99.05,11.86-.75,6.41-1.3,11.95-6.66,8.94-11.47l-.07-.1ZM200.46,104.64c-2.53-2.26.06-7.02.76-9.93,3.74-11.31,10.5-31.71,14.35-43.35,1.26-3.99,3.15-8.66,2.95-12.56-.13-9.28-20.9-6.84-28.08-6.97-5.85.19-9.95,1.4-11.81,7.49-5.44,15.65-14.7,44.78-20.02,59.92-1.44,4.25-4.06,6.31-8.8,6.61-6.31.51-18.08.34-24.42.19-5.36-.41-7.58-.51-6.66-4.75,5.9-18.95,24.42-73.79,30.76-93.33,2.02-5.96,2.24-8.02,10.62-7.84,16.42-.05,34.6,0,51.37-.02,16.51.64,40.63-3.36,48.54,12.33,5.14,13.08-.1,21.75-4.37,35.95-1.4,4.21-2.77,8.39-4.2,12.69-1.96,5.92-4.04,12.23-5.99,18.11-3.49,9.75-4.73,16.13-8.1,22.9-2.43,4.05-7.62,3.8-11.87,4.02-5.16.09-12.11.1-17.17,0-2.58-.14-5.64-.04-7.78-1.39l-.07-.05ZM248.13,105.08c-2.38-1.1-1.5-3.59.03-8.19,1.74-5.14,3.45-10.17,5.23-15.42,8.52-24.98,19.96-59.14,25.51-75.06.8-2.04,1.62-3.76,3.51-4.78,1.49-.92,4.76-1.28,7.29-1.39,3.94-.19,9.4-.14,14.54-.14,4.28.01,8.11.04,10.72.33,7.15.44,4.45,4.99,3.18,9.23-6.6,19.43-24.5,72.33-30.22,89.05-.79,2.15-1.54,4.23-3.28,5.5-1.81,1.48-6.45,1.79-9.45,1.86-4.24.12-9.89.08-14.87.08-4.27-.02-10.51-.1-12.12-1.03l-.08-.04ZM405.75,103.86c-4.6-2.86-7.91-9.81-11.07-14.98-2.8-4.05-6.84-14.46-12.33-13.06-2.37.62-4.54,2.4-6.58,3.94-5.94,4.73-15.13,12.31-21.59,17.53-8.78,7.39-12.41,9.1-24.15,8.85-10.05.02-21.42.03-31.27-.02-9.12-.03-8.57-1.04-3.53-4.87,14.89-11.54,52.78-39.06,68.7-52.06,2.34-2.62,1.45-4.4-.45-7.78-5.16-8.14-15.45-22.52-20.91-30.65-2.94-4.34-4.73-7.22-3.99-8.73.41-.78,1.07-1.04,2.07-1.33,2.03-.47,4.36-.52,6.57-.57,5.96-.07,14.58-.05,21.08-.01,3.2.06,6.58.16,9.55,1.02,10.64,2.33,13.95,21.07,22.91,20.63,3.93-.47,8.27-4.38,11.87-7.08,4.39-3.4,8.75-7.05,13.29-10.13C431.43.53,437.4.06,444.12.1c7.16-.04,14.82,0,21.99-.02,3.63.23,15.46-.69,15.74,1.3.6.8-6.86,6-10.58,8.74-14.48,10.66-34.92,25.45-49.29,36.17-3.56,2.62-4.9,4.97-2.71,8.78,7.44,12.73,19.84,30.89,27.64,43.66,3.82,6.12,1.81,7.13-5.2,7.33-6.56.15-16.09.08-22.82.07-5.8-.06-9.94-.32-13.02-2.2l-.12-.07Z"/>
  </g>
</svg>