<?xml version="1.0" encoding="UTF-8"?>
<svg id="Layer_2" data-name="Layer 2" xmlns="http://www.w3.org/2000/svg" viewBox="0 0 315.95 106.22">
  <defs>
    <style>
      .cls-1 {
        fill: #fff;
      }
    </style>
  </defs>
  <g id="Logos">
    <path id="_174" data-name="174" class="cls-1" d="M.36,105.7c-.69-.55-.22-1.52,0-2.39,3.08-9.39,16.74-50.73,20.7-62.75.77-2.53,2.28-5.59.12-7.77-3.15-3.75-14.97-.24-15.35-4.43-.08-1.18.34-2.39.71-3.61,1.8-5.43,4.99-15.04,6.64-19.86C14.68-.15,16.68-.02,22.57.03c5.14,0,10.46,0,15.63,0,12.54.22,29.05-2.02,28.92,14.23-.1,4.83-1.36,9.12-2.79,13.41-3.86,11.68-17.57,53.25-24.19,73.3-.99,2.36-.72,4.58-3.27,5-8.04.46-23.8.01-32.33.16-1.41-.03-2.99.09-4.15-.41l-.04-.03ZM58.35,105.87c-.2-.49.55-.95.96-1.42,10.91-10.38,44.88-42.4,61.8-58.56,3.8-3.61,7.69-7.18,11.69-10.55,1.06-.97,3.86-3.12,3.2-4.28-.59-.8-2.8-.77-4.07-.77-3.27.08-6.56.21-9.9.22-14.25.03-34.06.03-46.81,0-1.62-.05-4.02.1-3.47-2.21.62-2.76,1.76-5.79,2.79-9.04,1.49-4.59,3.79-11.55,5.07-15.44.86-2.51,1.29-4.03,3.39-3.79,24.12.08,93.81-.18,113.75.1,1.27.31-.13,3.01-.38,4.29-.99,3.08-2.74,8.38-4.23,12.97-.86,2.63-1.61,4.93-2.16,6.57-.98,2.71-.98,3.32-2.33,4.81-8.97,8.04-68.55,68.9-79.46,77.24-13.26.11-39.68.46-49.82-.13l-.02-.02ZM243.76,105.24c-.39-1.08.17-2.35.46-3.51,1.53-5.02,4.64-14.17,6.2-19.48.71-2.36.35-3.52-2.25-3.56-3.07-.11-11.19-.04-16.4-.06-23.99-.15-52.36,3.09-41.31-30.33,3.39-10.61,10.59-32.3,14.09-43.12,1.15-3.54,1.39-5.31,5.33-5.13,7.71-.07,23.84,0,30.85,0,1.9.06,4.23-.12,3.39,2.46-2.54,8.43-8.47,26.11-11.42,35.37-3.77,10.23,2.64,10.68,10.96,10.42,5.1-.05,10.53.12,15-.11,2.34-.03,3.51-1.25,4.13-3.51.72-2.13,1.79-5.46,3.08-9.37,3.38-10.31,7.02-21.45,10.42-31.77.95-2.79,1.42-3.37,4.34-3.46,1.9-.05,3.81-.03,5.83-.04,7.78-.01,17.57,0,24.98,0,3.47.02,4.57.04,4.5.91-3.97,12.96-29.49,90.61-33.93,104.05-.92,1.69-3.13.95-6.53,1.15-7.43,0-21.93.01-28.14,0-1.22-.07-2.83.15-3.56-.83l-.03-.06Z"/>
  </g>
</svg>