<?xml version="1.0" encoding="UTF-8"?>
<svg id="Layer_2" data-name="Layer 2" xmlns="http://www.w3.org/2000/svg" viewBox="0 0 396.85 295.19">
  <defs>
    <style>
      .cls-1 {
        fill: #fff;
      }
    </style>
  </defs>
  <g id="Logos">
    <path id="A" class="cls-1" d="M70.92,32.37c-97.94,57.55-93.7,181.64,8.15,235.1,110.23,61.82,325.32,21.04,317.58-130.42-4.62-44.53-31.2-81.25-69.12-103.94-72.35-43.9-185.28-44.1-256.43-.84l-.18.11ZM50.19,87.38c.94.78.76,3.96.92,5.61.45,18.86,13.09,25.37,31.81,23.78,47.29-1.36,150.27-65.73,166.36-34.18,2.38,7.61,1.61,17.09.16,25.01-.98,4.69-2.46,9.1-4.85,13.15-7.79,13.8-25.87,9.6-38.86,7.78-42.18-5.92-96.77-10.9-126.81,14.8-31.7,29-6.45,82.49,18.41,111.02,1.22,1.43,1.16,1.91.09,1.34-1.36-.65-4.7-2.95-7.63-5.1C35.78,213,15.91,145,46.27,92.18c.65-1.46,3-5.37,3.87-4.83l.05.03ZM214.4,152.82c34.14,1.67,48.02,19.21,19.77,48.57-32.48,34.86-80.51,23.89-79.25-21.04.65-11.29,8.11-20.09,18.72-23.9,12.79-5.01,29.17-4.83,40.72-3.63h.05ZM287.2,262.67c45.64-49.68,54.55-143.22,54.22-182.28.03-1.14-.04-3.76,1.16-3.43.88-.07,3.56,3.63,4.94,5.74,43.88,65.14,11.12,140.25-54.14,177.24-1.48.94-5.9,3.39-6.17,2.76l-.02-.03Z"/>
  </g>
</svg>